<svg width="73" height="73" viewBox="0 0 73 73" fill="none" xmlns="http://www.w3.org/2000/svg">
<rect x="1" y="1" width="71" height="71" rx="35.5" stroke="#00AEEF" stroke-width="2"/>
<path d="M23.3334 36.4974L26.0001 37.8307M48.6667 37.1641L46.0001 37.8307M30.6667 43.8307L30.9947 43.0121C31.4814 41.7947 31.7254 41.1854 32.2334 40.8414C32.7401 40.4974 33.3961 40.4974 34.7081 40.4974H37.2921C38.6041 40.4974 39.2601 40.4974 39.7667 40.8414C40.2734 41.1854 40.5187 41.7947 41.0067 43.0121L41.3334 43.8307M22.6667 43.1641V47.0067C22.6667 47.5121 22.9867 47.9734 23.4961 48.1987C23.8254 48.3454 24.1401 48.4974 24.5214 48.4974H26.8121C27.1934 48.4974 27.5081 48.3454 27.8387 48.1987C28.3454 47.9734 28.6667 47.5121 28.6667 47.0067V44.4974M43.3334 44.4974V47.0067C43.3334 47.5121 43.6534 47.9734 44.1627 48.1987C44.4921 48.3454 44.8067 48.4974 45.1881 48.4974H47.4787C47.8601 48.4974 48.1747 48.3454 48.5054 48.1987C49.0121 47.9734 49.3334 47.5121 49.3334 47.0067V43.1641M46.6667 31.8307L48.0001 31.1641M25.3334 31.8307L24.0001 31.1641" stroke="#00AEEF" stroke-width="2" stroke-linecap="round" stroke-linejoin="round"/>
<path d="M26.0001 32.5L27.4507 28.1467C28.0374 26.3867 28.3307 25.5067 29.0294 25.004C29.7281 24.5013 30.6561 24.5 32.5107 24.5H39.4894C41.3441 24.5 42.2721 24.5 42.9694 25.004C43.6694 25.5067 43.9627 26.3867 44.5494 28.1467L46.0001 32.5M26.0001 32.5H46.0001M26.0001 32.5C24.7241 33.852 22.6667 35.7333 22.6667 37.8333V42.46C22.6667 43.2227 23.1734 43.8627 23.8441 43.9493L28.0001 44.5H44.0001L48.1561 43.9493C48.8267 43.86 49.3334 43.22 49.3334 42.46V37.8333C49.3334 35.7333 47.2761 33.852 46.0001 32.5" stroke="#00AEEF" stroke-width="2" stroke-linejoin="round"/>
</svg>
