<svg width="110" height="53" viewBox="0 0 110 53" fill="none" xmlns="http://www.w3.org/2000/svg">
<path d="M32.3242 41.4453L71.3251 41.4453" stroke="#F7C31F" stroke-width="3"/>
<path d="M4.51706 27.2909C4.51706 27.2909 5.93943 23.8086 7.66229 22.2586C8.93083 21.1172 9.78978 20.5039 11.4366 20.0569C13.0961 19.6064 16.4694 20.0569 16.4694 20.0569M4.51706 27.2909L3.65553 30.1216C3.65553 30.1216 2.69952 32.769 2.31539 34.525C1.91817 36.3408 1.14427 37.4649 1.68634 39.2428C1.97514 40.1901 2.19911 40.7925 2.94444 41.4445C3.64849 42.0604 4.51665 42.2257 5.1461 42.3881C5.77555 42.5504 13.9532 42.3881 13.9532 42.3881M4.51706 27.2909C9.77563 28.5181 15.0781 25.2744 16.4694 20.0569M16.4694 20.0569H41.6308L73.0832 19.4278M16.4694 20.0569L17.7954 16.5202C18.7898 13.8681 20.2626 11.4212 22.1405 9.30095C26.5343 4.3402 32.847 1.50017 39.4738 1.50004C40.7593 1.50002 41.6308 1.5 41.6308 1.5H48.9745C54.6062 1.5 60.072 3.40628 64.4823 6.90851L65.0621 7.36893C67.2429 9.10078 69.0614 11.2451 70.4138 13.6795L72.6251 17.66C72.9255 18.2008 73.0832 18.8092 73.0832 19.4278M73.0832 19.4278H88.1803M106.108 31.6943C106.108 31.6943 104.769 28.004 103.277 26.0328C101.862 24.1615 100.851 23.2085 98.8741 21.944C96.4519 20.3946 94.8101 19.7654 91.9546 19.4278C90.4908 19.2548 88.1803 19.4278 88.1803 19.4278M106.108 31.6943H105.165H103.409C101.453 31.6943 99.5156 31.3148 97.7041 30.5769C94.0203 29.0763 91.076 26.1847 89.5092 22.5286L88.1803 19.4278M106.108 31.6943L108.222 37.1909C108.833 38.7773 108.315 40.5759 106.955 41.5955C106.81 41.7044 106.655 41.7945 106.475 41.813C104.313 42.034 89.7534 41.759 89.7534 41.759" stroke="#F7C31F" stroke-width="3"/>
<path d="M41.3164 1.82031L41.3164 31.3855" stroke="#F7C31F" stroke-width="3" stroke-linecap="round"/>
<path d="M50.123 27.9219H55.1554H56.099" stroke="#F7C31F" stroke-width="3" stroke-linecap="round"/>
<path d="M90.6961 41.7621C90.6961 47.4944 86.0491 52.1414 80.3168 52.1414C74.5845 52.1414 69.9375 47.4944 69.9375 41.7621C69.9375 36.0298 74.5845 31.3828 80.3168 31.3828C86.0491 31.3828 90.6961 36.0298 90.6961 41.7621ZM71.8813 41.7621C71.8813 46.4209 75.658 50.1976 80.3168 50.1976C84.9756 50.1976 88.7523 46.4209 88.7523 41.7621C88.7523 37.1033 84.9756 33.3266 80.3168 33.3266C75.658 33.3266 71.8813 37.1033 71.8813 41.7621Z" fill="#F7C31F"/>
<path d="M33.4539 41.7621C33.4539 47.4944 28.8069 52.1414 23.0746 52.1414C17.3423 52.1414 12.6953 47.4944 12.6953 41.7621C12.6953 36.0298 17.3423 31.3828 23.0746 31.3828C28.8069 31.3828 33.4539 36.0298 33.4539 41.7621ZM14.6391 41.7621C14.6391 46.4209 18.4158 50.1976 23.0746 50.1976C27.7334 50.1976 31.5101 46.4209 31.5101 41.7621C31.5101 37.1033 27.7334 33.3266 23.0746 33.3266C18.4158 33.3266 14.6391 37.1033 14.6391 41.7621Z" fill="#F7C31F"/>
<circle cx="41.3166" cy="34.842" r="0.943571" fill="#F7C31F"/>
</svg>
