<svg width="40" height="24" viewBox="0 0 40 24" fill="none" xmlns="http://www.w3.org/2000/svg">
<path d="M1.93622 17.854C1.32767 16.2457 1.38216 15.0786 1.93622 13.4507C2.74826 11.0649 4.22688 9.72586 6.65408 9.04737C6.65408 9.04737 11.0575 8.10297 11.6865 7.78928C12.3154 7.47559 13.9011 4.32099 16.0898 3.07142C17.3383 2.35861 19.235 1.5 20.8076 1.5C22.9527 1.5 22.9296 1.58644 24.8964 2.44269C28.1701 3.8679 27.5689 6.0976 30.2433 8.10388C31.5014 9.04768 34.1411 9.10796 35.2757 9.99102C36.2449 10.7455 36.7104 11.6797 37.1629 12.8217C37.7963 14.4203 37.7066 16.2227 37.1628 17.8541C36.3938 20.1612 35.1442 21.1513 32.7595 21.6283C31.1869 21.9429 7.59758 21.6284 6.02503 21.6283C4.45248 21.6282 2.70525 19.8865 1.93622 17.854Z" stroke="#F7C31F" stroke-width="3"/>
</svg>
