<svg width="73" height="73" viewBox="0 0 73 73" fill="none" xmlns="http://www.w3.org/2000/svg">
<rect x="1" y="1" width="71" height="71" rx="35.5" stroke="#00AEEF" stroke-width="2"/>
<path d="M27.5438 35.1667L25.5838 39.5774C23.1091 45.1427 21.8731 47.9254 23.2238 49.2761C24.5744 50.6267 27.3544 49.3894 32.9198 46.9161L37.3331 44.9534C40.6891 43.4614 42.3678 42.7161 42.6344 41.2774C42.9011 39.8387 41.6024 38.5401 39.0051 35.9441L36.5544 33.4921C33.9584 30.8947 32.6598 29.5961 31.2211 29.8641C29.7824 30.1307 29.0371 31.8094 27.5451 35.1654M28.6664 34.4974L37.9998 43.8307M25.9998 41.1641L31.3331 46.4974M41.3331 31.1641L45.3331 27.1641M38.9291 23.1641C39.4624 24.0534 39.8878 26.3641 37.3331 28.4974M49.3331 33.5681C48.4438 33.0347 46.1331 32.6094 43.9998 35.1641M43.9998 23.1641V23.1907M49.3331 28.4974V28.5241M47.9998 37.8307V37.8574M34.6664 24.4974V24.5241" stroke="#00AEEF" stroke-width="2" stroke-linecap="round" stroke-linejoin="round"/>
</svg>
