<svg width="73" height="73" viewBox="0 0 73 73" fill="none" xmlns="http://www.w3.org/2000/svg">
<rect x="1" y="1" width="71" height="71" rx="35.5" stroke="#00AEEF" stroke-width="2"/>
<path d="M38.8453 29.8233L43.3733 25.2939C43.8831 24.7925 44.5703 24.5127 45.2854 24.5156C46.0005 24.5186 46.6854 24.8039 47.1911 25.3096C47.6967 25.8152 47.982 26.5001 47.985 27.2152C47.9879 27.9303 47.7081 28.6175 47.2067 29.1273L42.6773 33.6553L45.128 45.8486C45.4413 47.4086 42.416 49.5819 41.6107 47.5153L38.024 38.3099L33.3667 42.9673C33.5933 45.6886 33.6427 46.5939 31.7347 48.5006L28.8347 43.6659L24 40.7659C25.9067 38.8579 26.812 38.9059 29.5333 39.1339L34.1907 34.4779L24.9853 30.8899C22.9187 30.0846 25.092 27.0579 26.652 27.3726L38.8453 29.8233Z" stroke="#00AEEF" stroke-width="1.25" stroke-linecap="round" stroke-linejoin="round"/>
</svg>
