<svg width="73" height="73" viewBox="0 0 73 73" fill="none" xmlns="http://www.w3.org/2000/svg">
<rect x="1" y="1" width="71" height="71" rx="35.5" stroke="#00AEEF" stroke-width="2"/>
<path d="M24 25.8281V47.1615C24 48.4188 24 49.0468 24.3907 49.4375C24.7813 49.8281 25.4093 49.8281 26.6667 49.8281H45.3333C46.5907 49.8281 47.2187 49.8281 47.6093 49.4375C48 49.0468 48 48.4188 48 47.1615V25.8281M34 31.1615V33.1615M34 33.1615V35.1615M34 33.1615H38M38 31.1615V33.1615M38 33.1615V35.1615" stroke="#00AEEF" stroke-width="2" stroke-linecap="round" stroke-linejoin="round"/>
<path d="M38.6665 49.8307V44.4974C38.6665 43.7902 38.3856 43.1119 37.8855 42.6118C37.3854 42.1117 36.7071 41.8307 35.9998 41.8307C35.2926 41.8307 34.6143 42.1117 34.1142 42.6118C33.6141 43.1119 33.3332 43.7902 33.3332 44.4974V49.8307M22.6665 25.8307H30.6665C31.5198 24.2667 33.5865 23.1641 35.9998 23.1641C38.4132 23.1641 40.4798 24.2667 41.3332 25.8307H49.3332M27.9998 31.1641H29.3332M27.9998 36.4974H29.3332M27.9998 41.8307H29.3332M42.6665 31.1641H43.9998M42.6665 36.4974H43.9998M42.6665 41.8307H43.9998" stroke="#00AEEF" stroke-width="2" stroke-linecap="round" stroke-linejoin="round"/>
</svg>
